<?xml version="1.0" standalone="no"?>
<!DOCTYPE svg PUBLIC "-//W3C//DTD SVG 20010904//EN"
 "http://www.w3.org/TR/2001/REC-SVG-20010904/DTD/svg10.dtd">
<svg version="1.0" xmlns="http://www.w3.org/2000/svg"
 width="1060.000000pt" height="1185.000000pt" viewBox="0 0 1060.000000 1185.000000"
 preserveAspectRatio="xMidYMid meet">

<g transform="translate(0.000000,1185.000000) scale(0.100000,-0.100000)"
fill="#000000" stroke="none">
<path d="M0 5925 l0 -5925 5300 0 5300 0 0 5925 0 5925 -5300 0 -5300 0 0
-5925z m4974 4398 c-45 -83 -130 -233 -143 -252 -7 -11 -31 -2 -117 44 -152
81 -266 163 -262 189 3 17 16 23 83 34 144 25 349 50 413 51 l63 1 -37 -67z
m-3188 -533 c36 -118 78 -246 94 -285 15 -38 43 -108 61 -155 86 -224 284
-661 405 -897 l63 -123 -41 -119 -42 -119 38 -61 c20 -34 34 -66 30 -73 -4 -6
-3 -8 3 -5 9 6 24 -14 27 -35 1 -3 4 -10 9 -14 4 -4 7 -78 7 -164 0 -127 -3
-160 -15 -170 -13 -11 -13 -15 0 -41 14 -27 14 -32 -6 -71 -35 -69 -79 -128
-149 -201 -36 -38 -70 -74 -75 -80 -94 -108 -202 -221 -207 -219 -5 1 -7 -2
-6 -7 2 -4 -25 -38 -59 -75 -67 -70 -72 -84 -48 -130 22 -41 19 -54 -17 -76
l-32 -19 25 -9 c62 -24 442 -35 542 -17 19 4 37 3 40 -2 2 -4 -1 -28 -8 -53
-73 -249 -80 -298 -80 -580 0 -135 6 -285 13 -335 24 -184 24 -175 -8 -243
-16 -34 -42 -79 -57 -100 -15 -20 -28 -38 -29 -40 0 -1 -14 4 -30 13 -16 8
-40 15 -55 15 -14 0 -48 11 -76 25 -46 23 -53 32 -86 104 -20 42 -43 97 -53
120 -9 23 -18 40 -20 38 -5 -4 58 -157 77 -190 18 -32 3 -30 -64 7 -65 36 -65
36 -111 139 -124 280 -239 594 -231 635 4 21 3 23 -3 8 -7 -17 -11 -12 -20 25
-10 39 -8 62 14 164 13 65 23 123 21 128 -2 6 -14 -41 -27 -104 l-24 -114 -10
45 c-15 68 -11 154 13 267 21 103 28 181 10 118 -7 -27 -48 -231 -50 -252 0
-4 -4 1 -9 12 -15 35 -11 101 16 262 14 85 24 157 21 159 -4 4 -18 -70 -40
-205 -15 -90 -37 -108 -37 -29 0 59 23 246 40 326 7 28 10 60 7 69 -2 10 -7
-8 -11 -39 -5 -36 -12 -55 -19 -51 -5 3 -7 1 -3 -5 9 -14 -15 -202 -26 -202
-18 0 -7 164 22 310 17 83 30 154 31 158 1 4 7 -13 13 -38 12 -43 13 -40 9 50
l-3 95 29 -105 c15 -58 57 -216 91 -352 35 -136 66 -246 68 -243 5 5 -7 91
-43 315 -81 497 -136 961 -156 1325 -20 366 -15 1224 7 1202 3 -2 9 -71 15
-153 43 -647 166 -1329 314 -1751 19 -53 32 -101 28 -106 -3 -6 -1 -7 5 -3 6
3 15 -2 21 -11 16 -27 14 29 -3 118 -8 41 -17 139 -20 219 -7 164 -21 291 -71
637 -80 553 -132 1094 -140 1473 -5 225 -15 237 91 -110z m1514 101 c0 -27 7
-85 16 -128 30 -145 30 -136 3 -128 -13 4 -69 28 -124 52 -105 47 -174 91
-175 109 0 10 252 144 271 144 5 0 9 -22 9 -49z m-374 -981 c180 -206 521
-518 769 -705 245 -184 457 -316 717 -446 76 -38 141 -76 145 -85 6 -17 -7
-55 -77 -224 -12 -30 -24 -65 -27 -77 -3 -13 -9 -23 -13 -23 -4 0 -7 -6 -7
-12 3 -25 -36 -138 -44 -132 -5 3 -6 -1 -4 -8 3 -8 -4 -40 -15 -73 -12 -33
-28 -91 -36 -130 -16 -78 -33 -128 -64 -198 -12 -26 -20 -53 -18 -58 2 -6 19
28 37 76 l34 86 24 -68 c14 -37 27 -77 30 -88 2 -11 9 -29 14 -40 4 -11 15
-38 22 -60 31 -87 101 -254 133 -318 20 -37 32 -73 28 -80 -4 -6 -3 -9 1 -4 5
4 20 -16 35 -45 14 -29 34 -65 44 -80 20 -30 14 -37 -10 -13 -9 8 -21 15 -27
15 -7 0 11 -21 38 -46 46 -42 42 -40 -45 21 -52 36 -135 92 -183 123 -77 50
-165 111 -357 252 -89 64 -393 313 -570 465 -183 156 -604 566 -681 660 -24
31 -59 74 -78 98 -18 23 -39 44 -45 47 -6 3 -56 53 -109 113 l-98 107 16 73
c9 39 25 110 36 157 10 47 24 112 30 145 19 112 131 532 190 718 l13 38 25
-33 c14 -18 71 -85 127 -148z m2524 130 c12 -28 10 -31 -37 -80 -29 -30 -68
-87 -92 -136 -23 -46 -52 -89 -63 -95 -16 -8 -4 21 49 122 39 74 80 153 92
177 12 23 25 42 30 42 5 0 14 -13 21 -30z m-182 -365 c-5 -28 -10 -97 -11
-155 -1 -105 14 -170 59 -259 27 -53 193 -224 284 -294 103 -79 285 -148 348
-132 l27 7 -25 10 c-14 5 -26 9 -28 9 -1 -1 -26 11 -55 26 -58 30 -113 72
-110 84 2 5 -5 5 -14 2 -13 -5 -15 -2 -10 11 4 11 3 15 -4 10 -16 -10 -67 45
-85 92 -26 69 -16 194 21 263 28 52 69 90 82 78 11 -12 115 -252 116 -269 1
-10 4 -18 8 -18 4 0 14 -19 24 -42 9 -24 23 -56 31 -73 18 -39 114 -275 121
-297 5 -17 -3 -20 -94 -33 -24 -4 -45 -11 -48 -15 -3 -5 -18 -5 -34 0 -16 4
-32 6 -34 4 -3 -3 -36 3 -75 12 l-70 17 -44 -26 -44 -25 -24 61 c-13 34 -43
101 -66 148 -23 47 -47 102 -53 122 -16 48 -37 65 -46 37 -3 -11 -11 -18 -16
-15 -5 4 -9 -3 -9 -13 0 -11 -24 -71 -54 -133 -30 -63 -57 -125 -61 -139 -4
-14 -15 -43 -25 -65 -26 -60 -140 -389 -140 -405 0 -31 -113 -350 -124 -350
-7 0 -13 -6 -13 -12 0 -7 -21 -44 -46 -81 -42 -63 -85 -179 -76 -206 2 -6 31
11 64 39 33 27 66 47 73 45 7 -3 10 -1 7 5 -7 11 29 32 40 22 5 -4 5 -2 2 4
-4 7 0 15 9 18 18 7 34 0 34 -15 0 -6 23 -57 50 -114 28 -57 50 -107 50 -110
0 -11 125 -269 183 -378 15 -28 14 -29 -27 -68 -24 -21 -51 -58 -60 -81 -10
-24 -22 -51 -27 -60 -5 -10 -9 -37 -9 -61 0 -24 -4 -47 -9 -53 -14 -15 5 -194
28 -259 20 -57 96 -198 151 -280 25 -37 35 -75 20 -75 -8 0 -68 82 -66 90 0 3
-13 21 -31 40 -17 19 -38 45 -45 59 -7 15 -40 67 -74 116 -103 151 -349 571
-482 820 -46 88 -120 227 -164 309 -56 105 -76 151 -67 156 6 4 39 13 73 20
33 6 79 18 101 25 22 8 93 26 159 42 65 15 114 29 108 31 -12 4 -295 -59 -394
-87 -38 -11 -68 -17 -68 -14 0 16 258 763 280 808 5 11 20 49 34 85 13 36 40
106 59 155 43 112 210 497 306 706 50 108 79 160 94 167 12 5 23 9 24 8 1 0
-3 -24 -9 -51z m2405 -865 c34 -134 79 -394 82 -480 1 -25 5 -54 9 -66 3 -12
13 -83 20 -159 14 -142 8 -375 -13 -495 -6 -30 -13 -92 -16 -137 -9 -128 -73
-465 -105 -551 -143 -385 -289 -663 -463 -879 -91 -114 -279 -305 -377 -383
-136 -108 -335 -224 -367 -214 -12 4 -14 3 -6 -3 14 -10 -194 -109 -312 -148
-83 -28 -301 -77 -321 -73 -8 2 5 25 37 63 268 320 468 592 536 726 14 29 29
47 35 43 7 -4 8 -2 4 4 -4 7 46 105 112 219 159 278 318 579 447 853 59 124
128 270 155 325 26 55 60 126 75 158 14 31 29 57 32 57 3 0 2 -7 -1 -16 -3 -9
-2 -12 5 -9 5 4 7 15 4 25 -3 10 -2 27 3 37 6 10 17 36 25 58 8 22 42 112 75
200 97 261 189 553 207 660 15 86 43 320 46 380 2 38 37 -58 72 -195z m-6337
104 c-14 -53 -174 -271 -365 -496 -46 -54 -86 -96 -88 -94 -8 8 96 253 179
426 44 91 81 166 82 167 2 2 89 12 185 22 9 1 11 -6 7 -25z m8294 -36 c11 -21
20 -40 20 -42 0 -9 -72 -43 -113 -54 l-37 -11 -30 59 -29 58 65 12 c36 7 71
18 77 25 14 14 16 12 47 -47z m-7151 -35 c5 -10 35 -45 65 -78 31 -33 56 -66
56 -72 0 -12 -21 -18 -45 -13 -5 1 -7 -1 -3 -5 7 -7 -26 -38 -74 -68 l-28 -17
0 135 c0 130 7 158 29 118z m2904 -88 c-3 -9 -8 -14 -10 -11 -3 3 -2 9 2 15 9
16 15 13 8 -4z m4429 -265 c377 -901 451 -1936 207 -2903 -42 -166 -129 -429
-198 -600 -66 -161 -172 -379 -187 -384 -5 -1 -36 36 -69 84 -154 221 -150
216 -288 302 -71 45 -204 126 -295 181 -202 121 -379 231 -455 284 -39 26 -63
37 -78 33 -36 -10 -453 207 -463 241 -16 54 -26 166 -26 306 l0 159 48 44 c26
24 70 55 97 69 73 35 105 26 160 -43 54 -69 75 -133 82 -253 5 -90 -4 -150
-32 -225 -19 -48 51 36 138 165 109 163 162 270 183 370 27 130 5 218 -79 322
-26 32 -47 60 -47 64 0 3 19 27 43 54 108 121 225 407 243 595 4 46 14 82 29
105 48 76 89 256 83 368 -3 68 -10 89 -54 183 -37 76 -62 115 -93 140 -22 20
-41 39 -41 42 0 17 87 -6 110 -28 14 -13 57 -39 95 -57 62 -29 80 -33 155 -33
80 0 90 2 157 38 39 21 100 63 135 94 35 30 72 59 83 64 11 4 63 24 115 44 52
20 102 41 110 46 8 5 30 15 48 24 l33 15 -48 61 c-83 106 -79 94 -58 152 10
29 25 68 33 87 l15 35 34 -75 c20 -41 53 -118 75 -170z m-8320 -40 c1 -27 -40
-272 -48 -279 -6 -6 -2 417 4 489 5 53 6 51 24 -65 10 -66 19 -131 20 -145z
m3907 157 c0 -29 -3 -46 -6 -39 -2 6 -9 12 -14 12 -14 0 -11 -64 3 -78 10 -10
10 -15 -2 -23 -11 -8 -12 -12 -2 -16 17 -7 15 -26 -2 -20 -11 4 -13 1 -9 -11
5 -13 3 -14 -6 -6 -18 17 -48 6 -55 -19 -4 -17 -8 -19 -17 -10 -9 9 -9 16 2
29 12 16 12 17 -3 11 -22 -8 -23 -10 7 48 13 27 21 53 18 58 -3 6 -1 7 5 3 11
-7 5 -33 -18 -77 -8 -13 -7 -19 0 -19 6 0 15 11 20 25 5 14 12 25 16 25 3 0 4
-11 2 -25 -3 -14 -1 -25 5 -25 5 0 7 19 3 48 -4 32 -3 41 4 27 6 -14 7 -4 4
33 -3 47 -2 52 16 52 21 0 27 14 11 24 -5 4 -11 0 -14 -6 -2 -7 -8 -10 -12 -5
-10 8 26 47 38 40 4 -2 7 -28 6 -56z m-55 -47 c-5 -5 -10 3 -11 18 -1 22 0 24
9 8 6 -10 6 -22 2 -26z m56 -40 c0 -5 -2 -10 -4 -10 -3 0 -8 5 -11 10 -3 6 -1
10 4 10 6 0 11 -4 11 -10z m-70 -145 c-7 -13 -17 -22 -22 -19 -5 3 -15 1 -23
-6 -10 -9 -16 -7 -25 7 -9 15 -10 14 -4 -7 3 -14 6 -27 6 -30 1 -28 -4 -40
-16 -40 -17 0 -41 -28 -32 -37 4 -4 11 -1 16 7 6 8 10 11 10 7 0 -15 -37 -57
-44 -50 -3 3 -6 -1 -6 -9 0 -9 -8 -22 -17 -29 -16 -12 -17 -12 -7 1 6 8 16 34
24 58 7 23 19 47 26 53 7 6 10 17 7 25 -3 9 0 14 8 12 9 -2 14 6 15 22 2 43 4
48 20 54 12 4 15 2 10 -9 -7 -21 7 -19 35 4 30 24 37 19 19 -14z m-3825 -220
c-13 -60 -27 -128 -31 -150 -7 -37 -8 -38 -15 -15 -12 44 -10 107 11 238 28
173 31 180 46 102 11 -59 10 -75 -11 -175z m3788 170 c-3 -9 -8 -14 -10 -11
-3 3 -2 9 2 15 9 16 15 13 8 -4z m-4382 -114 c64 -34 207 -91 339 -137 l95
-33 8 -63 c14 -110 97 -598 123 -721 57 -268 161 -585 250 -762 117 -231 113
-226 210 -276 48 -24 90 -44 95 -44 4 0 64 -22 133 -50 123 -49 125 -51 141
-91 9 -23 14 -47 13 -54 -2 -7 11 -17 27 -22 36 -10 301 -27 434 -28 88 0 97
-2 143 -31 27 -17 47 -33 46 -34 -2 -2 -51 -15 -110 -29 -325 -78 -653 -213
-1027 -423 l-105 -58 -57 -93 c-63 -103 -68 -128 -70 -324 -1 -54 -3 -98 -5
-98 -3 0 -26 11 -52 24 -58 29 -311 124 -352 132 -16 4 -30 3 -30 -2 0 -5 9
-69 20 -143 11 -74 18 -137 15 -139 -3 -3 -31 12 -62 33 -36 24 -68 38 -84 37
-29 -2 -21 -17 -121 223 -330 792 -420 1745 -247 2620 44 223 152 615 169 615
4 0 31 -13 61 -29z m1286 -84 c-44 -65 -132 -182 -154 -205 -8 -8 -20 -27 -28
-43 -9 -16 -20 -29 -25 -29 -6 0 -9 -4 -8 -9 2 -5 -15 -34 -37 -64 l-39 -56
-13 31 c-7 17 -13 31 -13 33 0 6 67 86 134 160 40 44 106 117 146 163 41 45
75 82 76 82 2 0 -16 -28 -39 -63z m3743 -218 l45 -19 -37 6 c-62 10 -43 -3 31
-21 75 -18 178 -79 205 -120 9 -14 13 -25 9 -25 -5 0 -3 -4 3 -8 13 -8 54
-127 54 -156 0 -11 -10 -36 -23 -55 -32 -51 -42 -69 -73 -131 -27 -55 -186
-336 -285 -505 -29 -49 -61 -107 -71 -128 -17 -35 -38 -42 -38 -13 0 7 -10 32
-22 57 -19 37 -23 59 -22 139 0 98 29 224 57 252 7 7 21 25 31 41 10 15 29 30
42 33 13 3 24 10 24 15 0 12 -43 12 -55 0 -18 -18 -294 -116 -302 -107 -2 2
20 53 50 112 30 60 94 197 142 304 48 107 101 224 118 260 17 36 30 73 30 83
0 20 9 18 87 -14z m-587 -36 c-7 -2 -21 -2 -30 0 -10 3 -4 5 12 5 17 0 24 -2
18 -5z m-1959 -40 c22 -20 87 -80 142 -134 56 -53 133 -123 171 -156 251 -213
230 -190 263 -281 16 -46 30 -88 30 -93 0 -6 4 -7 10 -4 6 4 7 -1 3 -11 -5
-13 -3 -15 7 -9 9 5 11 4 6 -4 -9 -14 13 -83 24 -76 4 3 6 -5 2 -17 -3 -14 -1
-19 6 -14 8 5 10 1 5 -10 -4 -11 -3 -15 4 -11 7 5 9 -1 5 -15 -3 -14 -1 -19 6
-14 8 5 10 2 6 -8 -3 -9 -1 -16 6 -16 6 0 9 -4 6 -9 -8 -12 4 -42 14 -36 5 3
6 -5 2 -17 -3 -14 -1 -19 6 -14 8 5 10 1 5 -10 -5 -13 -3 -15 7 -9 9 5 11 4 6
-4 -9 -15 3 -53 15 -46 5 3 6 -1 3 -9 -3 -8 2 -28 10 -45 33 -63 14 -43 -23
25 -103 189 -381 602 -507 754 -110 131 -245 262 -310 298 -19 11 -11 32 13
32 9 0 34 -16 57 -37z m1966 15 c0 -5 -13 -8 -30 -8 -16 0 -30 3 -30 8 0 4 14
7 30 7 17 0 30 -3 30 -7z m-11 -60 c-14 -59 -19 -63 -43 -33 -19 24 -24 25
-51 14 -17 -7 -36 -11 -42 -10 -7 1 -13 -4 -14 -11 0 -7 -4 -4 -9 7 -13 30
-12 31 20 29 17 -1 30 2 30 7 0 23 28 38 71 39 l47 0 -9 -42z m-72 -133 c-1
-85 8 -130 20 -97 3 6 11 12 18 12 7 0 16 -6 18 -12 12 -29 27 21 29 97 l2 80
4 -70 c2 -40 -2 -87 -9 -108 -10 -30 -10 -43 -1 -58 15 -23 16 -63 2 -54 -6 4
-8 16 -5 28 5 17 4 19 -4 7 -6 -8 -8 -24 -5 -35 4 -11 3 -16 -2 -12 -4 4 -9
20 -10 35 -2 15 -8 41 -13 57 l-11 30 3 -33 c2 -18 0 -35 -5 -38 -4 -3 -8 6
-8 20 0 14 -4 26 -9 26 -5 0 -15 17 -22 38 -7 20 -18 47 -26 58 -11 17 -11 27
-2 48 9 19 9 30 1 38 -7 7 -7 14 1 24 28 31 35 14 34 -81z m-2321 29 c-4 -14
-7 -87 -7 -162 -1 -203 57 -489 150 -749 64 -178 119 -288 255 -503 87 -139
352 -421 501 -534 33 -25 65 -49 70 -54 6 -4 46 -32 90 -62 44 -30 100 -70
125 -91 64 -52 141 -99 152 -93 5 3 15 2 21 -3 49 -32 -56 51 -133 105 -97 69
-380 340 -441 423 -19 25 -61 81 -93 124 -90 120 -183 266 -218 342 -44 96
-143 366 -173 470 -57 195 -112 553 -95 613 5 16 16 42 26 59 17 28 18 29 55
16 54 -19 138 -76 180 -121 121 -130 642 -854 737 -1024 11 -19 43 -75 72
-125 29 -49 64 -110 78 -135 14 -25 37 -63 52 -85 15 -22 55 -89 90 -150 118
-207 177 -310 204 -357 14 -26 32 -51 40 -55 7 -4 25 -33 39 -63 84 -184 107
-230 111 -230 3 0 -1 19 -10 42 -22 63 -12 55 29 -24 36 -70 36 -71 47 -44 5
15 10 72 10 127 0 96 -1 99 -22 96 -26 -2 -41 26 -163 313 -118 276 -194 469
-295 745 -87 236 -193 570 -188 587 2 4 44 -21 93 -58 145 -107 280 -193 521
-331 22 -12 48 -31 56 -40 18 -21 103 -145 195 -283 110 -167 207 -309 246
-359 20 -27 37 -51 37 -54 0 -3 -22 -32 -50 -64 -27 -32 -50 -61 -50 -65 0 -4
-26 -48 -59 -97 -32 -49 -67 -109 -77 -134 -11 -27 -29 -51 -44 -58 -25 -13
-25 -13 15 -19 l40 -6 -40 -12 c-22 -6 -46 -12 -54 -12 -8 0 -23 -7 -33 -16
-16 -16 -18 -16 -24 0 -3 9 -17 16 -30 16 -31 0 -40 -23 -46 -124 -5 -71 -4
-76 9 -52 7 14 15 26 16 26 1 0 2 -16 3 -35 0 -20 21 -74 50 -132 53 -105 60
-152 30 -198 -20 -31 -27 -31 -106 0 -66 26 -139 31 -245 16 l-50 -6 75 -30
c41 -16 120 -41 174 -55 l99 -26 54 -135 c46 -112 94 -283 93 -323 -1 -11 -69
212 -70 227 0 4 -4 7 -10 7 -13 0 -46 -75 -55 -125 -4 -22 -11 -44 -15 -50
-14 -19 -69 -200 -89 -295 -11 -52 -30 -138 -41 -190 -12 -52 -23 -104 -25
-115 -2 -11 -8 -33 -12 -49 -9 -29 -9 -29 -50 40 -49 83 -317 616 -366 729
-19 44 -61 143 -92 220 -51 127 -91 205 -65 130 5 -17 50 -149 98 -295 97
-289 128 -372 177 -470 45 -90 125 -227 125 -215 0 15 103 -187 104 -206 1
-18 68 -138 77 -139 3 0 12 35 19 77 16 92 17 91 56 -127 24 -133 45 -420 31
-420 -3 0 -18 37 -34 82 l-28 83 -7 -145 c-4 -80 -7 -173 -8 -207 -1 -35 -5
-63 -9 -63 -3 0 -15 17 -27 38 -11 20 -126 217 -256 437 -130 220 -259 442
-288 494 -90 163 -374 738 -455 921 -42 96 -85 191 -96 212 -18 36 -56 64 -96
71 -10 2 -29 9 -43 15 -14 6 -77 32 -140 57 -63 26 -121 49 -129 52 -15 7 -13
-37 13 -227 29 -224 29 -211 -7 -266 -17 -27 -41 -58 -52 -69 -11 -11 -27 -30
-35 -41 -8 -12 -39 -56 -69 -99 -41 -59 -56 -74 -63 -64 -7 11 -8 9 -4 -5 4
-12 -1 -27 -12 -40 -11 -12 -57 -77 -103 -146 -46 -69 -89 -131 -96 -138 -7
-7 -13 -17 -13 -21 0 -4 -11 -21 -25 -37 -14 -16 -38 -48 -53 -71 -15 -24 -30
-43 -33 -43 -3 0 -30 30 -60 66 -30 36 -65 78 -77 93 -13 14 -44 55 -68 91
-24 36 -56 83 -72 105 -15 22 -50 75 -76 118 l-49 78 7 119 c4 73 16 155 31
216 14 54 25 100 25 102 0 2 7 2 15 -2 9 -3 15 0 15 10 0 25 152 168 166 156
4 -4 5 -2 1 4 -3 5 15 28 41 50 25 21 69 58 97 82 73 62 73 63 144 115 35 26
67 47 72 47 4 0 14 6 21 13 7 7 28 23 46 36 17 12 32 27 32 32 0 6 -4 7 -10 4
-5 -3 -10 -1 -10 4 0 6 5 11 10 11 11 0 3 49 -10 64 -5 4 -62 -20 -127 -55
-65 -35 -124 -63 -130 -63 -7 1 -11 -2 -8 -6 2 -4 -17 -19 -43 -33 -41 -22
-164 -100 -197 -125 -5 -4 -30 -20 -55 -37 -25 -16 -67 -48 -95 -70 -27 -23
-84 -66 -125 -96 -41 -29 -81 -59 -88 -66 -18 -18 -19 -17 -32 23 -13 39 -8
46 90 125 165 133 648 419 684 406 8 -3 19 0 25 7 6 7 29 21 51 31 26 12 40
25 40 37 0 10 -2 18 -5 18 -20 0 -306 -141 -415 -204 -162 -95 -438 -276 -465
-306 l-20 -22 -10 54 c-13 70 -33 70 -52 -2 -18 -72 -7 -139 54 -325 47 -141
232 -527 317 -660 220 -343 646 -730 936 -850 90 -37 194 -87 198 -95 1 -4 13
-5 26 -3 13 3 26 0 30 -5 3 -6 -7 -78 -23 -160 -16 -82 -38 -201 -48 -265 -10
-65 -22 -113 -27 -110 -5 3 -6 1 -2 -5 8 -14 -14 -253 -24 -265 -13 -15 -235
87 -501 231 -173 94 -261 148 -449 281 -122 86 -198 144 -330 255 -125 105
-316 286 -313 297 2 5 -1 8 -6 6 -4 -1 -24 16 -44 38 -30 33 -40 57 -61 145
-30 127 -98 520 -92 536 2 6 0 17 -4 25 -10 15 7 42 21 33 5 -3 7 1 4 8 -2 7
42 63 99 123 103 109 128 143 65 88 -39 -34 -50 -44 -112 -111 -27 -29 -52
-52 -56 -52 -4 0 -13 -10 -19 -22 -18 -38 -22 311 -7 629 l7 142 67 97 66 98
152 68 c296 132 679 276 951 357 84 25 81 18 58 166 -8 50 -18 121 -22 159 -6
65 -8 69 -37 80 -17 6 -110 43 -206 81 l-175 71 -66 125 -66 126 13 89 c9 54
12 134 10 202 -2 61 -3 112 -2 112 2 0 15 -20 29 -45 l27 -45 -15 -137 -14
-137 87 -96 c47 -54 105 -120 129 -148 44 -53 65 -64 76 -37 5 13 -15 42 -67
100 -9 10 -45 59 -78 108 -57 86 -60 92 -54 136 12 87 14 88 50 34 19 -26 65
-88 102 -138 54 -72 74 -91 97 -93 16 -2 32 0 37 5 6 6 -29 67 -85 150 -74
110 -270 421 -309 489 -5 9 25 233 37 269 1 5 26 -23 56 -63 44 -61 70 -86 70
-68 0 10 -74 176 -104 236 -19 36 -37 76 -40 90 -7 25 -7 25 10 5 16 -19 16
-19 10 8 -5 19 -3 26 4 22 5 -3 10 -11 10 -17 0 -7 10 -22 21 -34 20 -22 42
-66 90 -187 67 -168 133 -258 164 -226 8 8 26 77 41 154 20 101 30 134 36 120
5 -14 6 -10 2 12 -3 18 2 78 12 133 15 87 16 105 4 141 -9 26 -22 44 -35 48
-15 4 -10 7 20 12 69 11 68 11 61 -17z m-1449 -106 c-3 -8 -6 -5 -6 6 -1 11 2
17 5 13 3 -3 4 -12 1 -19z m6750 -190 c-3 -8 -6 -5 -6 6 -1 11 2 17 5 13 3 -3
4 -12 1 -19z m136 -38 c31 -67 67 -85 168 -85 58 0 91 4 102 14 26 21 27 27
-39 -139 -21 -52 -44 -101 -51 -108 -7 -7 -13 -21 -13 -30 0 -10 -31 -59 -70
-111 -38 -51 -70 -99 -70 -107 0 -22 -13 -11 -80 67 -60 69 -60 70 -55 121 3
28 10 68 16 90 5 22 8 52 5 66 -3 15 6 70 20 122 14 52 28 105 31 118 8 31 15
27 36 -18z m-4216 -245 c12 -38 21 -70 19 -72 -2 -2 -17 31 -34 72 -17 42 -26
75 -20 73 6 -2 22 -35 35 -73z m1935 -187 c-53 -106 -142 -238 -142 -211 0 5
21 42 46 83 25 41 69 117 96 168 28 51 53 91 56 88 3 -3 -22 -61 -56 -128z
m-3704 -638 c6 -22 12 -49 12 -60 0 -13 10 -24 28 -30 64 -23 283 -161 275
-173 -3 -6 -2 -7 4 -4 10 6 79 -31 71 -38 -2 -3 -33 0 -69 6 -35 6 -92 9 -126
7 -34 -1 -65 1 -69 5 -4 4 -34 7 -66 7 -55 0 -59 2 -78 33 -11 17 -20 38 -20
46 0 7 -14 42 -30 77 l-31 63 38 51 c20 27 40 50 43 50 3 0 11 -18 18 -40z
m5177 -147 c-13 -31 -134 -382 -180 -518 -23 -71 -53 -150 -65 -175 l-21 -45
5 50 c3 28 10 127 17 220 l13 170 54 68 c30 37 57 67 61 67 4 0 15 13 24 30
10 16 24 36 32 44 9 8 24 35 35 60 10 25 22 46 26 46 3 0 3 -8 -1 -17z m-275
-483 c-44 -278 -78 -420 -122 -500 -57 -104 -88 -160 -243 -435 -69 -123 -89
-157 -144 -257 -18 -32 -34 -58 -36 -58 -7 0 114 309 168 430 13 30 41 102 62
160 21 58 59 157 85 220 26 63 85 205 130 315 88 213 109 259 115 253 3 -2 -4
-60 -15 -128z m-70 18 c0 -2 -20 -44 -44 -93 -39 -81 -61 -132 -126 -285 -10
-25 -55 -135 -98 -245 -44 -110 -122 -303 -175 -430 -52 -126 -98 -239 -101
-249 -25 -74 -11 79 39 439 13 94 31 237 40 320 9 82 20 155 23 162 4 6 45 41
92 76 47 36 141 119 210 185 107 104 140 132 140 120z m-4281 -280 c-57 -39
-109 -71 -116 -71 -6 0 -17 -11 -24 -24 -7 -12 -16 -23 -21 -23 -4 0 -26 -16
-48 -36 -21 -20 -44 -33 -50 -29 -5 3 -10 0 -10 -7 0 -7 -42 -55 -94 -106
l-93 -93 25 78 c14 43 29 80 33 81 5 2 7 7 4 12 -4 7 146 110 160 110 3 0 1
-9 -5 -20 -6 -11 -8 -20 -6 -20 3 0 12 13 20 29 9 16 27 32 42 35 14 4 24 10
20 13 -3 3 4 11 17 18 18 9 23 8 28 -4 5 -12 9 -10 18 11 7 20 33 39 98 72 48
25 92 45 97 45 5 1 -38 -31 -95 -71z m4348 20 c-3 -8 -6 -5 -6 6 -1 11 2 17 5
13 3 -3 4 -12 1 -19z m-10 -50 c-3 -7 -5 -2 -5 12 0 14 2 19 5 13 2 -7 2 -19
0 -25z m-622 -299 c-71 -181 -157 -391 -190 -467 -9 -18 -38 -92 -66 -165
-172 -446 -261 -666 -311 -772 l-28 -60 6 95 c12 169 19 717 14 1003 -3 154
-3 282 0 286 21 30 238 124 363 157 113 31 226 77 257 107 14 13 26 21 28 17
1 -4 -32 -94 -73 -201z m-1778 179 c-3 -8 -6 -5 -6 6 -1 11 2 17 5 13 3 -3 4
-12 1 -19z m-2379 -125 c-6 -21 -13 -42 -16 -48 -4 -5 -7 -14 -7 -20 -2 -37
-19 -74 -41 -85 -14 -8 -28 -28 -34 -49 -29 -104 -42 -159 -45 -191 -3 -19
-11 -66 -18 -105 l-14 -70 -21 42 -21 41 19 74 c38 142 96 318 104 311 4 -4 4
0 1 9 -10 25 21 74 62 103 21 14 38 25 40 25 1 0 -3 -17 -9 -37z m4178 -315
c-24 -178 -50 -370 -56 -428 -18 -165 -40 -281 -62 -325 -33 -64 -175 -314
-220 -385 -47 -73 -206 -348 -282 -487 -28 -50 -52 -90 -53 -89 -2 2 7 81 18
177 18 143 27 186 52 239 105 231 135 305 367 915 48 127 114 295 147 375 33
80 76 191 94 248 19 57 35 99 37 93 2 -5 -17 -155 -42 -333z m-4290 226 c-29
-78 -94 -290 -101 -333 -8 -50 -17 -43 -40 33 -13 43 -13 55 1 105 38 136 56
180 80 195 13 9 24 14 24 11 0 -3 9 4 21 16 28 28 33 19 15 -27z m-143 -134
l-27 -83 -18 53 c-17 51 -17 54 0 65 9 7 28 22 42 33 14 11 26 19 27 18 2 -2
-9 -40 -24 -86z m3792 -292 c-8 -443 -21 -779 -41 -998 -8 -96 -17 -182 -19
-190 -2 -8 -7 -53 -10 -100 -4 -47 -13 -150 -21 -230 -16 -151 -36 -211 -99
-296 -21 -28 -205 -323 -205 -328 0 -5 -100 -169 -111 -182 -20 -24 -29 -15
-29 28 0 23 -4 69 -10 102 -22 135 -100 724 -100 752 0 29 155 462 270 754 27
69 70 184 96 255 25 72 74 200 109 285 61 152 104 274 145 418 11 39 23 72 26
72 3 0 3 -154 -1 -342z m-59 280 c-8 -18 -26 -69 -40 -113 -24 -80 -43 -128
-151 -385 -31 -74 -76 -189 -100 -255 -23 -66 -63 -176 -88 -245 -25 -69 -73
-204 -106 -300 -74 -212 -120 -330 -121 -310 -1 23 -56 407 -80 552 -11 70
-20 167 -20 214 0 138 -54 463 -109 659 -16 55 -32 114 -35 131 l-7 31 73 -15
c49 -10 138 -15 268 -15 241 -1 363 17 460 67 36 18 66 29 68 25 2 -4 -3 -23
-12 -41z m-4637 -72 c31 -19 95 -53 144 -77 l87 -43 0 -91 c1 -131 17 -380 29
-455 17 -98 51 -363 48 -367 -4 -3 -210 265 -225 293 -19 36 -69 267 -128 594
-24 138 -29 180 -18 180 4 0 32 -15 63 -34z m2411 -321 c78 -148 171 -326 207
-395 36 -69 76 -143 88 -165 13 -22 36 -65 52 -95 35 -65 95 -172 223 -400
134 -238 280 -507 280 -515 0 -3 7 -13 15 -21 18 -18 20 -38 3 -28 -7 4 -8 3
-4 -5 4 -6 12 -9 17 -6 5 4 9 2 9 -3 0 -4 31 -62 68 -128 38 -65 86 -150 106
-189 74 -135 150 -271 202 -360 70 -120 70 -119 9 -116 -131 6 -299 29 -303
41 -4 10 -6 10 -12 0 -6 -10 -41 -7 -159 13 l-151 25 -79 71 c-94 85 -190 185
-273 286 -33 41 -63 75 -65 75 -14 0 112 -146 236 -272 79 -82 138 -148 130
-148 -8 0 -39 7 -69 15 -62 16 -97 49 -243 234 -112 142 -135 167 -88 96 21
-33 84 -114 139 -180 55 -66 96 -122 91 -124 -11 -3 -95 17 -114 28 -5 3 -17
7 -25 8 -9 1 -72 20 -140 42 -69 21 -135 42 -147 46 -42 12 -44 25 -29 156 16
134 85 551 115 685 16 76 16 84 2 88 -9 2 -50 12 -91 22 -41 9 -89 26 -106 36
-31 18 -32 19 -20 61 25 95 10 1128 -21 1357 -3 25 -3 43 0 40 3 -3 69 -126
147 -275z m-386 194 c6 -34 -14 -71 -67 -121 -16 -15 -39 -41 -50 -57 -29 -40
-123 -163 -137 -178 -5 -7 -10 -16 -10 -21 0 -4 -15 -26 -34 -47 -19 -21 -40
-50 -48 -64 -13 -26 -32 -51 -55 -76 -7 -8 -13 -18 -13 -24 0 -6 -3 -11 -8
-11 -4 0 -13 -9 -20 -20 -7 -11 -9 -20 -5 -20 5 1 31 32 58 71 28 39 56 77 63
84 6 8 12 18 12 24 0 6 4 11 8 11 4 0 28 28 52 63 24 34 48 67 52 72 4 6 30
39 58 75 27 36 67 84 87 108 21 24 39 47 41 52 5 12 32 0 32 -14 0 -6 -22 -36
-48 -67 -27 -31 -66 -81 -87 -110 -22 -30 -43 -55 -47 -57 -5 -2 -8 -8 -8 -13
0 -8 -148 -215 -190 -266 -6 -7 -10 -15 -10 -18 0 -16 -58 -94 -65 -88 -4 5
-5 3 -2 -3 4 -6 -10 -39 -30 -73 -34 -58 -37 -60 -55 -44 -12 10 -16 24 -12
37 4 16 3 18 -5 7 -8 -12 -12 -12 -25 -2 -24 20 -20 34 24 90 22 28 40 53 40
57 0 3 15 24 33 47 19 23 44 59 56 80 13 20 27 37 32 37 6 0 8 4 4 9 -3 5 -1
12 4 15 5 4 42 55 82 114 61 90 151 214 169 232 3 3 21 28 40 55 42 61 62 85
71 85 4 0 9 -14 13 -31z m-2137 -195 c5 -1 42 -178 39 -182 -7 -6 -166 276
-166 295 0 4 28 -19 62 -52 34 -33 64 -60 65 -61z m2149 29 c-5 -27 -4 -34 3
-23 7 11 9 2 7 -30 -4 -50 -14 -80 -26 -80 -5 0 -12 -10 -15 -21 -6 -17 -9
-19 -17 -8 -8 11 -8 10 -4 -5 4 -12 -6 -34 -28 -65 -19 -25 -72 -104 -120
-176 -47 -71 -89 -134 -93 -140 -22 -28 -63 -96 -63 -103 0 -7 -43 -69 -77
-111 -2 -3 -19 10 -38 29 -33 32 -33 34 -21 64 32 72 200 328 286 433 6 7 32
43 58 80 26 38 52 75 59 83 47 58 73 94 73 101 0 5 5 9 11 9 7 0 9 -13 5 -37z
m1709 -68 c10 -44 24 -109 31 -145 24 -112 19 -227 -31 -660 -8 -69 -15 -127
-15 -130 0 -3 -22 34 -49 82 -53 94 -101 161 -139 193 l-24 20 47 180 c53 210
68 271 90 380 23 112 26 120 35 106 4 -8 10 5 14 30 9 56 20 41 41 -56z
m-1697 -137 c0 -40 -3 -77 -7 -83 -3 -5 -7 -25 -8 -44 -3 -44 -51 -143 -65
-135 -7 4 -8 2 -4 -4 7 -11 -32 -76 -75 -127 -26 -30 -74 -122 -58 -108 8 7
46 59 84 117 70 104 87 122 68 69 -6 -15 -19 -54 -29 -86 -10 -32 -26 -66 -35
-75 -9 -10 -14 -29 -13 -42 4 -24 3 -24 -11 -6 -17 23 -20 14 -5 -14 8 -16 7
-18 -9 -15 -14 2 -18 -1 -14 -11 3 -7 10 -11 16 -7 6 3 7 1 3 -6 -4 -6 -11 -9
-16 -6 -5 3 -16 -9 -24 -26 -23 -46 -19 -60 5 -19 11 19 17 26 14 15 -4 -11
-11 -32 -15 -46 -4 -14 -13 -36 -19 -48 -11 -20 -14 -20 -39 -6 -15 8 -37 23
-50 33 l-23 18 26 29 c14 17 25 36 25 43 0 6 3 12 8 12 4 0 15 14 24 30 31 54
4 31 -41 -35 -24 -36 -47 -65 -51 -65 -10 0 -84 62 -89 73 -2 5 12 33 33 63
20 30 36 58 36 62 1 4 14 23 30 42 17 19 30 38 30 42 0 6 132 208 153 233 5 6
32 47 61 92 52 81 75 113 82 113 2 0 3 -33 2 -72z m1901 -763 c17 -121 35
-265 41 -320 6 -55 15 -122 21 -150 5 -27 21 -133 35 -235 14 -102 34 -238 45
-303 31 -187 48 -317 43 -332 -3 -7 -22 -20 -44 -30 -38 -17 -38 -17 -84 10
-57 33 -119 97 -168 173 -20 31 -59 89 -86 127 -62 87 -74 111 -117 230 -42
117 -62 212 -69 330 l-6 90 28 -100 c15 -55 44 -136 64 -180 20 -44 44 -109
53 -144 15 -58 72 -186 61 -136 -3 11 -7 58 -11 105 -4 47 -13 118 -21 158 -8
40 -32 199 -54 355 -22 155 -44 298 -50 317 -5 19 -10 39 -9 45 2 19 30 -79
85 -294 30 -118 56 -217 59 -219 3 -3 5 11 5 31 0 91 52 403 102 612 25 104
33 125 39 105 4 -14 21 -124 38 -245z"/>
<path d="M2346 7943 c-6 -14 -5 -15 5 -6 7 7 10 15 7 18 -3 3 -9 -2 -12 -12z"/>
<path d="M2269 7273 c-13 -16 -12 -17 4 -4 9 7 17 15 17 17 0 8 -8 3 -21 -13z"/>
<path d="M1542 7105 c0 -16 2 -22 5 -12 2 9 2 23 0 30 -3 6 -5 -1 -5 -18z"/>
<path d="M2099 7103 l-24 -28 28 24 c25 23 32 31 24 31 -2 0 -14 -12 -28 -27z"/>
<path d="M1656 6403 c-14 -47 -36 -157 -35 -176 0 -21 1 -21 11 3 6 14 12 34
13 45 2 11 8 47 14 79 10 57 9 87 -3 49z"/>
<path d="M1851 5864 c0 -11 3 -14 6 -6 3 7 2 16 -1 19 -3 4 -6 -2 -5 -13z"/>
<path d="M1911 5670 c0 -8 4 -22 9 -30 12 -18 12 -2 0 25 -6 13 -9 15 -9 5z"/>
<path d="M2305 5359 c-4 -6 -5 -12 -2 -15 2 -3 7 2 10 11 7 17 1 20 -8 4z"/>
<path d="M4282 6690 c7 -10 14 -18 15 -16 6 6 -9 36 -18 36 -5 0 -4 -9 3 -20z"/>
<path d="M7176 6513 c-4 -9 -3 -20 1 -24 4 -4 9 3 9 17 2 28 -1 31 -10 7z"/>
<path d="M5245 7309 c-4 -6 -5 -12 -2 -15 2 -3 7 2 10 11 7 17 1 20 -8 4z"/>
<path d="M1592 4110 c0 -14 2 -19 5 -12 2 6 2 18 0 25 -3 6 -5 1 -5 -13z"/>
<path d="M5285 6809 c-12 -19 3 -22 27 -5 l22 16 -21 0 c-12 0 -25 -5 -28 -11z"/>
<path d="M5252 6657 c-7 -8 -6 -18 3 -31 13 -17 14 -16 13 13 -1 35 -2 36 -16
18z"/>
<path d="M2901 6312 c-1 -19 49 -165 60 -176 13 -14 11 11 -3 37 -6 12 -22 51
-34 87 -13 36 -23 59 -23 52z"/>
<path d="M2700 6023 c23 -40 44 -73 47 -73 7 0 -57 112 -74 130 -8 8 4 -18 27
-57z"/>
<path d="M2801 5835 c0 -5 29 -66 64 -135 35 -69 64 -120 64 -115 0 6 -29 66
-64 135 -35 69 -64 121 -64 115z"/>
<path d="M2950 5663 c0 -4 5 -15 10 -23 8 -13 10 -13 10 2 0 9 -4 20 -10 23
-5 3 -10 3 -10 -2z"/>
<path d="M3023 5550 c4 -19 16 -53 27 -75 11 -23 16 -41 10 -43 -6 -2 -6 -11
1 -24 9 -18 8 -19 -10 -13 -15 5 -21 2 -21 -10 0 -9 39 -98 86 -198 48 -100
126 -272 174 -382 49 -110 136 -301 194 -424 58 -123 105 -226 103 -228 -2 -1
-30 48 -61 110 -321 622 -376 724 -444 823 -14 21 -15 27 14 -201 13 -103 21
-137 40 -165 20 -29 21 -36 9 -43 -22 -12 -18 -29 4 -22 15 4 24 -1 35 -23 17
-32 13 -42 -16 -42 -13 0 -18 -8 -18 -29 0 -37 11 -45 36 -26 10 8 24 15 30
15 18 0 73 -131 80 -193 6 -54 10 -60 48 -85 23 -16 62 -39 88 -52 26 -13 45
-26 43 -28 -2 -3 -39 14 -81 37 -42 23 -79 40 -81 37 -3 -2 26 -22 64 -45 73
-43 299 -138 308 -130 4 5 -110 277 -122 289 -2 3 -2 -9 2 -25 7 -30 -153 293
-205 415 -47 111 -155 340 -224 478 -36 73 -64 132 -62 132 2 0 28 -33 58 -72
65 -86 120 -144 131 -140 5 1 6 -2 2 -7 -3 -6 16 -34 42 -64 26 -29 107 -123
180 -209 124 -146 323 -343 458 -455 59 -48 169 -123 182 -123 4 0 40 -27 80
-60 71 -59 154 -111 316 -199 74 -41 80 -42 140 -37 34 4 81 7 104 9 24 1 43
3 43 4 0 1 -59 32 -132 68 -123 62 -394 220 -463 270 -134 97 -238 177 -317
242 -111 91 -389 368 -476 473 -66 79 -111 132 -162 190 -17 19 -79 98 -137
175 -89 117 -105 134 -100 105z"/>
<path d="M3436 5448 c48 -95 151 -255 237 -368 68 -89 183 -225 205 -241 9 -8
-3 10 -28 39 -25 29 -61 75 -80 101 -156 216 -209 290 -226 318 -76 129 -147
243 -150 243 -2 0 17 -41 42 -92z"/>
<path d="M4037 5273 c8 -70 60 -227 82 -247 33 -30 53 -17 69 44 10 40 11 60
3 77 -6 13 -11 31 -11 40 0 9 -11 31 -25 49 -14 18 -25 38 -25 44 0 6 -4 8
-10 5 -5 -3 -10 -1 -10 4 0 6 -11 11 -24 11 -14 0 -28 5 -31 10 -14 23 -22 7
-18 -37z"/>
<path d="M3420 4816 c0 -4 61 -140 100 -221 117 -247 216 -456 230 -491 13
-30 26 -43 46 -48 18 -5 30 -3 32 4 3 8 8 8 18 -1 8 -6 14 -7 14 -2 0 15 -101
199 -169 307 -34 55 -78 129 -98 165 -53 98 -165 291 -169 291 -2 0 -4 -2 -4
-4z"/>
<path d="M3111 4524 c0 -11 3 -14 6 -6 3 7 2 16 -1 19 -3 4 -6 -2 -5 -13z"/>
<path d="M4740 4394 c0 -5 7 -19 15 -30 8 -10 15 -14 15 -8 0 5 -7 19 -15 30
-8 10 -15 14 -15 8z"/>
<path d="M4495 4340 c15 -24 250 -120 329 -134 29 -6 37 -4 33 6 -2 7 -10 12
-16 10 -7 -1 -34 4 -61 12 -51 15 -75 25 -197 82 -75 35 -99 41 -88 24z"/>
<path d="M3790 4021 c0 -18 70 -161 138 -281 124 -220 237 -410 243 -410 3 0
9 33 13 73 4 39 16 115 27 167 43 208 44 224 25 303 -9 39 -20 78 -25 85 -7
11 -72 -373 -71 -422 0 -48 -57 43 -205 329 -43 83 -83 153 -89 157 -15 11
-56 10 -56 -1z"/>
<path d="M3888 3994 c6 -11 18 -28 27 -39 15 -19 15 -18 1 12 -9 17 -21 35
-27 39 -8 4 -8 1 -1 -12z"/>
<path d="M2770 2683 c0 -14 56 -81 120 -143 140 -137 379 -352 459 -413 62
-47 78 -66 85 -98 3 -18 8 -30 11 -28 2 3 0 22 -6 43 -8 29 -7 41 3 54 8 10 8
13 1 9 -19 -12 -83 31 -76 51 4 13 3 14 -5 3 -7 -10 -16 -6 -43 19 -22 20 -30
33 -21 37 18 7 15 19 -7 19 -12 0 -17 -5 -14 -16 3 -8 -19 9 -48 38 -53 52
-54 53 -34 69 20 16 17 16 -27 -2 -7 -3 -31 11 -53 31 -22 20 -33 33 -24 31 9
-3 16 1 16 9 0 17 -9 18 -24 3 -7 -7 -22 3 -50 35 -22 25 -44 46 -49 46 -10 0
-122 107 -176 168 -21 23 -38 39 -38 35z"/>
<path d="M3876 1373 c26 -35 49 -63 51 -63 6 0 -31 50 -67 90 -17 19 -10 7 16
-27z"/>
<path d="M4827 1338 c-53 -128 -77 -191 -74 -194 2 -2 22 42 45 98 23 56 40
104 38 105 -2 2 -6 -2 -9 -9z"/>
<path d="M4736 1295 c-9 -26 -7 -32 5 -12 6 10 9 21 6 23 -2 3 -7 -2 -11 -11z"/>
<path d="M3935 1290 c3 -5 8 -10 11 -10 2 0 4 5 4 10 0 6 -5 10 -11 10 -5 0
-7 -4 -4 -10z"/>
<path d="M4711 1224 c-7 -20 -11 -38 -8 -40 3 -3 10 11 17 31 16 47 8 55 -9 9z"/>
<path d="M2912 3018 c-7 -7 -12 -16 -12 -21 0 -4 -12 -24 -26 -43 -15 -19 -24
-37 -20 -41 7 -7 4 -12 45 55 32 50 38 75 13 50z"/>
<path d="M3334 3423 c-17 -27 -39 -64 -50 -83 -10 -19 -22 -37 -25 -40 -13
-11 -109 -160 -109 -169 0 -5 -4 -11 -8 -13 -4 -1 -17 -17 -27 -34 -11 -18
-40 -60 -63 -94 -24 -34 -41 -64 -38 -67 3 -3 13 8 23 26 10 17 21 31 26 31 4
0 7 6 7 14 0 8 3 16 8 18 10 4 105 145 139 205 14 27 35 59 45 73 36 48 88
130 88 139 0 5 5 11 12 13 6 2 9 9 7 16 -2 7 -18 -9 -35 -35z"/>
<path d="M2980 2890 c-9 -6 -10 -10 -3 -10 6 0 15 5 18 10 8 12 4 12 -15 0z"/>
<path d="M2936 2825 c-9 -26 -7 -32 5 -12 6 10 9 21 6 23 -2 3 -7 -2 -11 -11z"/>
<path d="M3351 3226 c-24 -30 -51 -72 -62 -93 -10 -20 -19 -33 -19 -28 -1 6
-8 -6 -18 -25 -9 -19 -33 -60 -53 -90 -20 -30 -55 -87 -78 -127 -22 -39 -48
-79 -57 -88 -9 -9 -13 -19 -9 -23 3 -4 10 0 15 8 4 8 18 26 29 39 12 13 21 28
21 33 0 5 30 55 67 111 38 56 70 107 72 112 5 11 101 157 127 193 9 12 15 25
12 28 -3 2 -24 -20 -47 -50z"/>
<path d="M3041 2727 c-1 -11 -6 -15 -13 -11 -7 5 -8 3 -3 -5 10 -16 29 2 22
21 -4 8 -6 7 -6 -5z"/>
<path d="M3171 2643 c0 -6 -4 -20 -7 -30 -5 -14 -4 -15 5 -7 7 7 11 20 8 30
-3 11 -5 14 -6 7z"/>
</g>
</svg>
